<?xml version="1.0" encoding="UTF-8" standalone="no"?>
<svg
   xmlns:dc="http://purl.org/dc/elements/1.1/"
   xmlns:cc="http://creativecommons.org/ns#"
   xmlns:rdf="http://www.w3.org/1999/02/22-rdf-syntax-ns#"
   xmlns:svg="http://www.w3.org/2000/svg"
   xmlns="http://www.w3.org/2000/svg"
   xmlns:sodipodi="http://sodipodi.sourceforge.net/DTD/sodipodi-0.dtd"
   xmlns:inkscape="http://www.inkscape.org/namespaces/inkscape"
   sodipodi:docname="logo.svg"
   inkscape:version="0.92.4 (5da689c313, 2019-01-14)"
   version="1.1"
   id="svg2"
   viewBox="0 0 366.2592 154.7901"
   height="43.685207mm"
   width="103.36649mm">
  <defs
     id="defs4">
    <mask
       id="mask2195"
       maskUnits="userSpaceOnUse">
      <circle
         r="52.333706"
         cy="293.50284"
         cx="115.08302"
         id="circle2197"
         style="fill:#ffffff;fill-opacity:0.97647059;stroke:none;stroke-width:0.96815461;stroke-linecap:round;stroke-opacity:0.53264615" />
    </mask>
    <mask
       id="mask2139"
       maskUnits="userSpaceOnUse">
      <circle
         r="52.656639"
         cy="293.50754"
         cx="114.98561"
         id="circle2141"
         style="fill:#f9f9f9;fill-opacity:1;stroke:none;stroke-width:0.95070678;stroke-linecap:round;stroke-opacity:0.53264615" />
    </mask>
  </defs>
  <sodipodi:namedview
     inkscape:document-rotation="0"
     inkscape:window-maximized="1"
     inkscape:window-y="-11"
     inkscape:window-x="3829"
     inkscape:window-height="2066"
     inkscape:window-width="3840"
     fit-margin-bottom="0"
     fit-margin-right="0"
     fit-margin-left="0"
     fit-margin-top="0"
     showgrid="false"
     inkscape:current-layer="g4438"
     inkscape:document-units="px"
     inkscape:cy="64.984915"
     inkscape:cx="289.83475"
     inkscape:zoom="5.6568542"
     inkscape:pageshadow="2"
     inkscape:pageopacity="0"
     borderopacity="1.0"
     bordercolor="#666666"
     pagecolor="#ffffff"
     id="base" />
  <metadata
     id="metadata7">
    <rdf:RDF>
      <cc:Work
         rdf:about="">
        <dc:format>image/svg+xml</dc:format>
        <dc:type
           rdf:resource="http://purl.org/dc/dcmitype/StillImage" />
        <dc:title></dc:title>
      </cc:Work>
    </rdf:RDF>
  </metadata>
  <g
     transform="translate(13.110197,-22.263331)"
     id="layer1"
     inkscape:groupmode="layer"
     inkscape:label="Layer 1">
    <g
       transform="matrix(0.78068787,0,0,0.78068787,-15.807471,-128.59772)"
       id="g942">
      <rect
         style="opacity:1;fill:#8ac1ff;fill-opacity:1;stroke:#ffffff;stroke-width:3.73890996;stroke-linecap:round;stroke-linejoin:bevel;stroke-miterlimit:4;stroke-dasharray:none;stroke-dashoffset:0;stroke-opacity:0"
         id="rect926-3"
         width="113.80141"
         height="112.97248"
         x="232.77649"
         y="69.842361"
         transform="rotate(45)" />
      <path
         sodipodi:nodetypes="cccccc"
         inkscape:connector-curvature="0"
         id="path928"
         d="m 115.95775,253.10787 51.03043,51.03042 -8.8e-4,8.7e-4 H 65.552592 l -0.31307,-0.31308 z"
         style="opacity:1;fill:#0044aa;fill-opacity:1;stroke:#ffffff;stroke-width:3.75338006;stroke-linecap:round;stroke-linejoin:bevel;stroke-miterlimit:4;stroke-dasharray:none;stroke-dashoffset:0;stroke-opacity:0" />
      <rect
         transform="rotate(-45)"
         y="232.76923"
         x="-182.85445"
         height="40.62323"
         width="113.3063"
         id="rect930"
         style="opacity:1;fill:#5f8dd3;fill-opacity:1;stroke:#ffffff;stroke-width:3.7244401;stroke-linecap:round;stroke-linejoin:bevel;stroke-miterlimit:4;stroke-dasharray:none;stroke-dashoffset:0;stroke-opacity:0" />
      <rect
         transform="rotate(45)"
         y="69.842361"
         x="232.77649"
         height="40.608734"
         width="113.80142"
         id="rect932"
         style="opacity:1;fill:#3771c8;fill-opacity:1;stroke:#ffffff;stroke-width:3.73894;stroke-linecap:round;stroke-linejoin:bevel;stroke-miterlimit:4;stroke-dasharray:none;stroke-dashoffset:0;stroke-opacity:0" />
    </g>
    <g
       id="g4438"
       transform="matrix(0.41271958,0,0,0.41271958,-478.98294,601.9238)">
      <circle
         r="150.94643"
         cy="-1213.3873"
         cx="1342.1033"
         id="circle2168"
         style="fill:#f9f9f9;fill-opacity:1;stroke:none;stroke-width:2.72531223;stroke-linecap:round;stroke-opacity:0.53264615" />
      <g
         mask="url(#mask2195)"
         transform="matrix(2.8666171,0,0,2.8666171,1012.4836,-2054.7611)"
         id="g2166">
        <rect
           style="opacity:1;fill:#8ac1ff;fill-opacity:1;stroke:#ffffff;stroke-width:7.24615288;stroke-linecap:round;stroke-linejoin:bevel;stroke-miterlimit:4;stroke-dasharray:none;stroke-dashoffset:0;stroke-opacity:0"
           id="rect2158"
           width="130.87151"
           height="131.18085"
           x="232.58209"
           y="70.036751"
           transform="rotate(45)" />
        <path
           id="path2160"
           d="m 115.95775,253.10787 51.03043,51.03042 -8.8e-4,8.7e-4 H 65.552592 l -0.31307,-0.31308 z"
           style="opacity:1;fill:#0044aa;fill-opacity:1;stroke:#ffffff;stroke-width:3.75338006;stroke-linecap:round;stroke-linejoin:bevel;stroke-miterlimit:4;stroke-dasharray:none;stroke-dashoffset:0;stroke-opacity:0"
           inkscape:connector-curvature="0" />
        <rect
           transform="rotate(-45)"
           y="212.37883"
           x="-182.85445"
           height="61.013618"
           width="113.3063"
           id="rect2162"
           style="opacity:1;fill:#5f8dd3;fill-opacity:1;stroke:#ffffff;stroke-width:3.7244401;stroke-linecap:round;stroke-linejoin:bevel;stroke-miterlimit:4;stroke-dasharray:none;stroke-dashoffset:0;stroke-opacity:0" />
        <rect
           transform="rotate(45)"
           y="49.513313"
           x="232.77649"
           height="60.937782"
           width="113.80142"
           id="rect2164"
           style="opacity:1;fill:#3771c8;fill-opacity:1;stroke:#ffffff;stroke-width:3.73894;stroke-linecap:round;stroke-linejoin:bevel;stroke-miterlimit:4;stroke-dasharray:none;stroke-dashoffset:0;stroke-opacity:0" />
      </g>
      <g
         aria-label="alterior"
         style="font-style:normal;font-variant:normal;font-weight:normal;font-stretch:normal;font-size:178.88388062px;line-height:1.25;font-family:'Asap Condensed';-inkscape-font-specification:'Asap Condensed, Normal';font-variant-ligatures:normal;font-variant-caps:normal;font-variant-numeric:normal;font-feature-settings:normal;text-align:start;letter-spacing:0px;word-spacing:0px;writing-mode:lr-tb;text-anchor:start;fill:#0044aa;fill-opacity:0.97647059;stroke:none;stroke-width:4.47209787"
         id="text3742-5-7-0">
        <path
           d="m 1572.4517,-1165.1406 q -11.9852,0 -19.1406,-7.1553 -6.9765,-7.3343 -6.9765,-20.5717 0,-13.4163 6.9765,-20.5716 6.9765,-7.1554 17.3517,-9.4809 10.3753,-2.5043 23.7916,-2.6832 v -8.4076 q 0,-6.082 -3.7566,-10.0175 -3.7565,-3.9354 -11.8063,-3.9354 -6.2609,0 -11.0908,1.61 -4.651,1.431 -8.0498,3.2199 -3.3988,1.6099 -3.9354,1.6099 -1.7889,0 -4.1144,-3.3988 -2.1466,-3.5777 -2.1466,-5.3665 0,-2.3255 4.1144,-4.8299 4.2932,-2.5043 11.0908,-4.1143 6.9764,-1.6099 14.3107,-1.6099 14.3107,0 22.3605,7.1553 8.0497,7.1554 8.0497,19.8561 v 41.1433 q 0,11.8064 1.0733,16.994 1.0733,5.0087 1.0733,5.5454 0,2.1466 -3.3988,3.2199 -3.3987,0.8944 -6.2609,0.8944 -2.6832,0 -3.9354,-2.6832 -1.2522,-2.8622 -2.3255,-7.8709 -9.4809,11.4485 -23.2549,11.4485 z m 3.041,-14.1318 q 11.6275,0 18.9617,-10.1964 v -23.076 q -10.0175,0.1789 -16.6362,1.4311 -6.4398,1.2522 -11.0908,5.5454 -4.651,4.1143 -4.651,12.5219 0,13.774 13.4163,13.774 z"
           style="font-style:normal;font-variant:normal;font-weight:normal;font-stretch:normal;font-size:178.88388062px;font-family:'Asap Condensed';-inkscape-font-specification:'Asap Condensed, Normal';font-variant-ligatures:normal;font-variant-caps:normal;font-variant-numeric:normal;font-feature-settings:normal;text-align:start;writing-mode:lr-tb;text-anchor:start;fill:#0044aa;fill-opacity:0.97647059;stroke-width:4.47209787"
           id="path5304" />
        <path
           d="m 1636.029,-1165.1406 q -7.3342,0 -13.2374,-4.6509 -5.7243,-4.8299 -5.7243,-16.994 v -110.0136 q 0,-3.9354 7.1554,-3.9354 h 0.7155 q 7.1554,0 7.1554,3.9354 v 108.5825 q 0,10.1964 6.6187,10.1964 2.1466,0 3.5777,-0.3578 1.431,-0.5366 2.1466,-0.5366 1.6099,0 2.6832,3.3988 1.0733,3.2199 1.0733,5.0087 0,2.6833 -3.9354,4.1143 -3.9355,1.2522 -8.2287,1.2522 z"
           style="font-style:normal;font-variant:normal;font-weight:normal;font-stretch:normal;font-size:178.88388062px;font-family:'Asap Condensed';-inkscape-font-specification:'Asap Condensed, Normal';font-variant-ligatures:normal;font-variant-caps:normal;font-variant-numeric:normal;font-feature-settings:normal;text-align:start;writing-mode:lr-tb;text-anchor:start;fill:#0044aa;fill-opacity:0.97647059;stroke-width:4.47209787"
           id="path5306" />
        <path
           d="m 1671.1254,-1165.1406 q -7.8709,0 -13.953,-4.6509 -6.082,-4.8299 -6.082,-16.994 v -60.105 h -5.9032 q -1.7888,0 -2.6832,-1.2522 -0.8945,-1.2522 -0.8945,-4.1143 v -2.1466 q 0,-2.8622 0.8945,-4.1143 0.8944,-1.2522 2.6832,-1.2522 h 5.9032 l 2.1466,-18.7828 q 0.3578,-3.9355 5.7243,-3.9355 h 1.7888 q 5.3665,0 5.3665,3.9355 v 18.7828 h 11.8064 q 1.9677,0 2.6832,1.2522 0.8945,1.2521 0.8945,4.1143 v 2.1466 q 0,2.8621 -0.8945,4.1143 -0.7155,1.2522 -2.6832,1.2522 h -11.8064 v 57.6006 q 0,6.4398 1.7889,8.9442 1.7888,2.3255 5.1876,2.3255 2.3255,0 3.9355,-0.3578 1.6099,-0.5366 2.1466,-0.5366 1.6099,0 2.6832,3.2199 1.0733,3.2199 1.0733,5.3665 0,2.8621 -3.7565,4.1143 -3.5777,1.0733 -8.0498,1.0733 z"
           style="font-style:normal;font-variant:normal;font-weight:normal;font-stretch:normal;font-size:178.88388062px;font-family:'Asap Condensed';-inkscape-font-specification:'Asap Condensed, Normal';font-variant-ligatures:normal;font-variant-caps:normal;font-variant-numeric:normal;font-feature-settings:normal;text-align:start;writing-mode:lr-tb;text-anchor:start;fill:#0044aa;fill-opacity:0.97647059;stroke-width:4.47209787"
           id="path5308" />
        <path
           d="m 1716.2493,-1165.1406 q -18.9617,0 -28.2637,-11.6274 -9.1231,-11.6275 -9.1231,-35.5979 0,-23.7916 8.9442,-36.1346 8.9442,-12.3429 26.296,-12.3429 15.5629,0 23.4338,11.9852 7.8708,11.8063 7.8708,34.7035 0,1.6099 -2.1466,4.472 -2.1466,2.8622 -3.7565,2.8622 h -44.5421 q 0.8944,15.2051 5.7243,22.0027 4.8298,6.7976 15.384,6.7976 6.4398,0 10.733,-1.7888 4.2932,-1.7889 6.9765,-3.7566 2.6833,-1.9677 3.2199,-1.9677 1.7888,0 3.9355,3.5777 2.3254,3.5776 2.3254,5.3665 0,2.1466 -3.7565,5.0087 -3.5777,2.6833 -9.8386,4.651 -6.261,1.7888 -13.4163,1.7888 z m 13.2374,-54.5595 q 0,-28.2637 -15.9207,-28.2637 -17.1728,0 -18.6039,28.2637 z"
           style="font-style:normal;font-variant:normal;font-weight:normal;font-stretch:normal;font-size:178.88388062px;font-family:'Asap Condensed';-inkscape-font-specification:'Asap Condensed, Normal';font-variant-ligatures:normal;font-variant-caps:normal;font-variant-numeric:normal;font-feature-settings:normal;text-align:start;writing-mode:lr-tb;text-anchor:start;fill:#0044aa;fill-opacity:0.97647059;stroke-width:4.47209787"
           id="path5310" />
        <path
           d="m 1759.452,-1165.8561 q -7.1554,0 -7.1554,-3.9354 v -63.1461 q 0,-11.8063 -1.0733,-16.815 -1.0733,-5.1877 -1.0733,-5.7243 0,-2.1466 3.3988,-3.041 3.3988,-1.0734 6.2609,-1.0734 2.5044,0 3.5777,2.6833 1.2522,2.6833 1.7889,5.7243 0.7155,2.8621 0.8944,3.7566 8.5864,-13.4163 18.7828,-13.4163 4.4721,0 6.7976,1.9677 2.5043,1.9677 2.5043,5.0087 0,3.0411 -1.0733,6.4399 -1.0733,3.2199 -2.5043,3.2199 -0.8945,0 -3.2199,-0.8945 -2.3255,-1.0733 -5.5454,-1.0733 -4.651,0 -8.9442,3.9355 -4.1144,3.7565 -5.5454,6.9765 v 65.4715 q 0,3.9354 -7.1554,3.9354 z"
           style="font-style:normal;font-variant:normal;font-weight:normal;font-stretch:normal;font-size:178.88388062px;font-family:'Asap Condensed';-inkscape-font-specification:'Asap Condensed, Normal';font-variant-ligatures:normal;font-variant-caps:normal;font-variant-numeric:normal;font-feature-settings:normal;text-align:start;writing-mode:lr-tb;text-anchor:start;fill:#0044aa;fill-opacity:0.97647059;stroke-width:4.47209787"
           id="path5312" />
        <path
           d="m 1808.4232,-1274.7964 q -7.8709,0 -7.8709,-3.9354 v -9.1231 q 0,-3.9355 8.2287,-3.9355 7.8709,0 7.8709,3.9355 v 9.1231 q 0,3.9354 -8.2287,3.9354 z m -0.3578,108.9403 q -7.1553,0 -7.1553,-3.9354 v -86.401 q 0,-3.9354 7.1553,-3.9354 h 0.7156 q 7.1553,0 7.1553,3.9354 v 86.401 q 0,3.9354 -7.1553,3.9354 z"
           style="font-style:normal;font-variant:normal;font-weight:normal;font-stretch:normal;font-size:178.88388062px;font-family:'Asap Condensed';-inkscape-font-specification:'Asap Condensed, Normal';font-variant-ligatures:normal;font-variant-caps:normal;font-variant-numeric:normal;font-feature-settings:normal;text-align:start;writing-mode:lr-tb;text-anchor:start;fill:#0044aa;fill-opacity:0.97647059;stroke-width:4.47209787"
           id="path5314" />
        <path
           d="m 1857.6505,-1165.1406 q -16.815,0 -25.7592,-12.1641 -8.7653,-12.1641 -8.7653,-35.2401 0,-23.2549 8.7653,-35.7768 8.9442,-12.5218 25.7592,-12.5218 16.6362,0 25.2227,12.5218 8.7653,12.343 8.7653,35.7768 0,23.2549 -8.5864,35.419 -8.5865,11.9852 -25.4016,11.9852 z m -0.3577,-12.8796 q 9.4808,0 13.9529,-8.4075 4.651,-8.5865 4.651,-26.4749 0,-17.8883 -4.651,-26.4748 -4.4721,-8.5864 -13.9529,-8.5864 -9.4809,0 -13.953,8.5864 -4.2932,8.4076 -4.2932,26.4748 0,17.8884 4.2932,26.4749 4.4721,8.4075 13.953,8.4075 z"
           style="font-style:normal;font-variant:normal;font-weight:normal;font-stretch:normal;font-size:178.88388062px;font-family:'Asap Condensed';-inkscape-font-specification:'Asap Condensed, Normal';font-variant-ligatures:normal;font-variant-caps:normal;font-variant-numeric:normal;font-feature-settings:normal;text-align:start;writing-mode:lr-tb;text-anchor:start;fill:#0044aa;fill-opacity:0.97647059;stroke-width:4.47209787"
           id="path5316" />
        <path
           d="m 1906.5017,-1165.8561 q -7.1553,0 -7.1553,-3.9354 v -63.1461 q 0,-11.8063 -1.0733,-16.815 -1.0733,-5.1877 -1.0733,-5.7243 0,-2.1466 3.3988,-3.041 3.3988,-1.0734 6.2609,-1.0734 2.5044,0 3.5777,2.6833 1.2522,2.6833 1.7888,5.7243 0.7156,2.8621 0.8944,3.7566 8.5865,-13.4163 18.7829,-13.4163 4.472,0 6.7975,1.9677 2.5044,1.9677 2.5044,5.0087 0,3.0411 -1.0733,6.4399 -1.0733,3.2199 -2.5044,3.2199 -0.8944,0 -3.2199,-0.8945 -2.3255,-1.0733 -5.5454,-1.0733 -4.651,0 -8.9442,3.9355 -4.1143,3.7565 -5.5454,6.9765 v 65.4715 q 0,3.9354 -7.1553,3.9354 z"
           style="font-style:normal;font-variant:normal;font-weight:normal;font-stretch:normal;font-size:178.88388062px;font-family:'Asap Condensed';-inkscape-font-specification:'Asap Condensed, Normal';font-variant-ligatures:normal;font-variant-caps:normal;font-variant-numeric:normal;font-feature-settings:normal;text-align:start;writing-mode:lr-tb;text-anchor:start;fill:#0044aa;fill-opacity:0.97647059;stroke-width:4.47209787"
           id="path5318" />
      </g>
    </g>
  </g>
</svg>
