<?xml version="1.0" encoding="UTF-8" standalone="no"?>
<svg
   width="128.94643"
   height="145.36441"
   version="1.2"
   viewBox="0 0 96.709761 109.02351"
   id="svg17"
   sodipodi:docname="nodejs-square.svg"
   inkscape:version="1.3.2 (091e20e, 2023-11-25, custom)"
   xmlns:inkscape="http://www.inkscape.org/namespaces/inkscape"
   xmlns:sodipodi="http://sodipodi.sourceforge.net/DTD/sodipodi-0.dtd"
   xmlns="http://www.w3.org/2000/svg"
   xmlns:svg="http://www.w3.org/2000/svg">
  <sodipodi:namedview
     id="namedview17"
     pagecolor="#ffffff"
     bordercolor="#000000"
     borderopacity="0.25"
     inkscape:showpageshadow="2"
     inkscape:pageopacity="0.0"
     inkscape:pagecheckerboard="0"
     inkscape:deskcolor="#d1d1d1"
     inkscape:zoom="8"
     inkscape:cx="162.125"
     inkscape:cy="165.25"
     inkscape:window-width="3840"
     inkscape:window-height="2054"
     inkscape:window-x="3829"
     inkscape:window-y="-11"
     inkscape:window-maximized="1"
     inkscape:current-layer="svg17" />
  <defs
     id="defs11">
    <clipPath
       id="a">
      <path
         d="m 239.03,226.605 -42.13,24.317 c -1.578,0.91 -2.546,2.59 -2.546,4.406 v 48.668 c 0,1.817 0.968,3.496 2.546,4.406 l 42.133,24.336 c 1.575,0.907 3.517,0.907 5.09,0 l 42.126,-24.336 c 1.57,-0.91 2.54,-2.59 2.54,-4.406 v -48.668 c 0,-1.816 -0.97,-3.496 -2.55,-4.406 l -42.12,-24.317 c -0.79,-0.453 -1.67,-0.68 -2.55,-0.68 -0.88,0 -1.76,0.227 -2.55,0.68"
         id="path1" />
    </clipPath>
    <linearGradient
       id="b"
       x1="-0.34799999"
       x2="1.251"
       gradientTransform="matrix(-38.064915,77.652126,-77.652126,-38.064915,258.72325,244.62943)"
       gradientUnits="userSpaceOnUse">
      <stop
         offset=".3"
         stop-color="#3E863D"
         id="stop1" />
      <stop
         offset=".5"
         stop-color="#55934F"
         id="stop2" />
      <stop
         offset=".8"
         stop-color="#5AAD45"
         id="stop3" />
    </linearGradient>
    <clipPath
       id="c">
      <path
         d="m 195.398,307.086 c 0.403,0.523 0.907,0.976 1.5,1.316 l 36.14,20.875 6.02,3.46 c 0.9,0.52 1.926,0.74 2.934,0.665 0.336,-0.027 0.672,-0.09 1,-0.183 l 44.434,-81.36 c -0.34,-0.37 -0.738,-0.68 -1.184,-0.94 l -27.586,-15.93 -14.582,-8.39 c -0.414,-0.24 -0.863,-0.41 -1.32,-0.53 z m 0,0"
         id="path3" />
    </clipPath>
    <linearGradient
       id="d"
       x1="-0.456"
       x2="0.58200002"
       gradientTransform="matrix(106.8057,-78.916731,78.916731,106.8057,235.18824,285.39477)"
       gradientUnits="userSpaceOnUse">
      <stop
         offset=".57"
         stop-color="#3E863D"
         id="stop4" />
      <stop
         offset=".72"
         stop-color="#619857"
         id="stop5" />
      <stop
         offset="1"
         stop-color="#76AC64"
         id="stop6" />
    </linearGradient>
    <clipPath
       id="e">
      <path
         d="m 241.066,225.953 c -0.707,0.07 -1.398,0.29 -2.035,0.652 l -42.01,24.247 45.3,82.51 c 0.63,-0.09 1.25,-0.3 1.81,-0.624 l 42.13,-24.336 c 1.3,-0.754 2.19,-2.03 2.46,-3.476 l -46.18,-78.89 c -0.34,-0.067 -0.68,-0.102 -1.03,-0.102 -0.14,0 -0.28,0.007 -0.42,0.02"
         id="path6" />
    </clipPath>
    <linearGradient
       id="f"
       x1="0.043000001"
       x2="0.98400003"
       gradientTransform="matrix(97.417,0,0,97.417,192.862,279.652)"
       gradientUnits="userSpaceOnUse">
      <stop
         offset=".16"
         stop-color="#6BBF47"
         id="stop7" />
      <stop
         offset=".38"
         stop-color="#79B461"
         id="stop8" />
      <stop
         offset=".47"
         stop-color="#75AC64"
         id="stop9" />
      <stop
         offset=".7"
         stop-color="#659E5A"
         id="stop10" />
      <stop
         offset=".9"
         stop-color="#3E863D"
         id="stop11" />
    </linearGradient>
  </defs>
  <path
     fill="#689f63"
     d="m 48.371794,104.24066 c -1.3319,0 -2.654678,-0.3494 -3.822371,-1.02173 L 32.382606,96.015721 c -1.817223,-1.016256 -0.930506,-1.375687 -0.331151,-1.58277 2.422964,-0.848402 2.914672,-1.039977 5.500931,-2.508716 0.271853,-0.155084 0.627635,-0.100349 0.905874,0.06386 l 9.34702,5.546541 c 0.337537,0.182453 0.816473,0.182453 1.129379,0 L 85.379461,76.497912 C 85.716998,76.306337 85.93594,75.914065 85.93594,75.51267 V 33.457466 c 0,-0.41964 -0.218942,-0.793666 -0.563777,-1.003486 L 48.941957,11.435498 c -0.337537,-0.200697 -0.784544,-0.200697 -1.122081,0 L 11.396968,32.45398 c -0.353045,0.200697 -0.577461,0.592969 -0.577461,0.994363 v 42.055205 c 0,0.401394 0.218943,0.784544 0.565601,0.976118 l 9.980129,5.765486 c 5.418827,2.709413 8.730332,-0.483498 8.730332,-3.694655 V 37.042649 c 0,-0.592969 0.465253,-1.049099 1.058222,-1.049099 h 4.616038 c 0.574724,0 1.049099,0.45613 1.049099,1.049099 v 41.526094 c 0,7.225102 -3.940965,11.375887 -10.79204,11.375887 -2.107322,0 -3.767636,0 -8.401918,-2.280651 L 8.0644806,82.153926 C 5.7017262,80.785535 4.2421095,78.231206 4.2421095,75.503548 V 33.448343 c 0,-2.736783 1.4596167,-5.291112 3.8223711,-6.641257 L 44.545774,5.7612386 c 2.308019,-1.3045323 5.373214,-1.3045323 7.662987,0 l 36.43568,21.0549704 c 2.353632,1.359268 3.822371,3.904474 3.822371,6.641257 V 75.51267 c 0,2.727659 -1.468739,5.272865 -3.822371,6.641256 l -36.43568,21.045844 c -1.167693,0.67507 -2.490471,1.02173 -3.840616,1.02173"
     id="path11"
     style="stroke-width:0.91226;fill:#000000" />
  <path
     fill="#689f63"
     d="m 59.629087,75.261799 c -15.946311,0 -19.289746,-7.319978 -19.289746,-13.45949 0,-0.583847 0.470727,-1.0491 1.055485,-1.0491 h 4.707264 c 0.519989,0 0.957873,0.378588 1.039977,0.892191 0.711563,4.796665 2.828007,7.21598 12.4706,7.21598 7.681232,0 10.947124,-1.735119 10.947124,-5.808362 0,-2.344509 -0.930505,-4.086927 -12.862871,-5.25462 -9.980129,-0.985241 -16.147009,-3.183789 -16.147009,-11.166067 0,-7.352819 6.20337,-11.731669 16.594016,-11.731669 11.667811,0 17.451542,4.050436 18.18135,12.7534 0.02737,0.301046 -0.0821,0.59297 -0.282801,0.811912 -0.200697,0.20982 -0.483498,0.337536 -0.775421,0.337536 h -4.734632 c -0.49262,0 -0.921383,-0.346658 -1.021731,-0.821034 -1.140326,-5.0448 -3.895352,-6.659501 -11.38501,-6.659501 -8.383673,0 -9.359792,2.919233 -9.359792,5.108658 0,2.654678 1.149449,3.4301 12.461477,4.926207 11.202558,1.486984 16.521036,3.585183 16.521036,11.45799 0,7.936666 -6.62301,12.488845 -18.172227,12.488845"
     id="path12"
     sodipodi:nodetypes="cssscsscssccsscsscsc"
     style="stroke-width:0.91226;fill:#000000" />
  <path
     fill="#689f63"
     d="m 83.90906,97.131093 h 1.779217 c 1.460552,0 1.739383,-1.022386 1.739383,-1.619883 0,-1.566773 -1.075496,-1.566773 -1.672995,-1.566773 h -1.832326 z m -2.164271,-5.018984 h 3.943488 c 1.354329,0 4.009877,0 4.009877,3.027324 0,2.111157 -1.35433,2.549323 -2.164272,2.814877 1.580051,0.106221 1.686273,1.141889 1.898718,2.60244 0.106221,0.91616 0.278831,2.49621 0.597497,3.02731 h -2.429826 c -0.06638,-0.5311 -0.438165,-3.45221 -0.438165,-3.611541 -0.159333,-0.650608 -0.385054,-0.969272 -1.194996,-0.969272 h -2.004938 v 4.594093 h -2.217383 z m -4.740151,5.709423 c 0,4.753418 3.837266,8.603968 8.550862,8.603968 4.753429,0 8.590696,-3.93021 8.590696,-8.603968 0,-4.766704 -3.890378,-8.550859 -8.603973,-8.550859 -4.647209,0 -8.550863,3.731045 -8.550863,8.537581 m 18.801275,0.03984 c 0,5.629746 -4.607375,10.223846 -10.223857,10.223846 -5.57665,0 -10.223857,-4.54099 -10.223857,-10.223846 0,-5.789089 4.753429,-10.223854 10.223857,-10.223854 5.510259,0 10.210579,4.448041 10.210579,10.223854"
     id="path12-5"
     sodipodi:nodetypes="cssscccsscccccscccccsssccsssc"
     style="fill:#000000;stroke-width:1.32778" />
</svg>
